<mxfile host="app.diagrams.net" modified="2023-01-21T21:58:17.210Z" agent="5.0 (Macintosh; Intel Mac OS X 10_15_7) AppleWebKit/537.36 (KHTML, like Gecko) Chrome/108.0.0.0 Safari/537.36" etag="Ls3UBtc_Mc5QVSmWJ8Ww" version="20.8.10" type="github">
  <diagram name="Page-1" id="gagfhWGmJxK4a6R7dy6G">
    <mxGraphModel dx="929" dy="452" grid="1" gridSize="10" guides="1" tooltips="1" connect="1" arrows="1" fold="1" page="1" pageScale="1" pageWidth="850" pageHeight="1100" math="0" shadow="0">
      <root>
        <mxCell id="0" />
        <mxCell id="1" parent="0" />
        <mxCell id="s9cxLbGYcSHXDW8gIA_D-10" style="edgeStyle=orthogonalEdgeStyle;rounded=0;orthogonalLoop=1;jettySize=auto;html=1;" parent="1" source="s9cxLbGYcSHXDW8gIA_D-1" edge="1">
          <mxGeometry relative="1" as="geometry">
            <mxPoint x="480" y="375" as="targetPoint" />
          </mxGeometry>
        </mxCell>
        <mxCell id="s9cxLbGYcSHXDW8gIA_D-1" value="" style="verticalLabelPosition=bottom;verticalAlign=top;html=1;shadow=0;dashed=0;strokeWidth=1;shape=mxgraph.android.phone2;strokeColor=#c0c0c0;" parent="1" vertex="1">
          <mxGeometry x="60" y="110" width="290" height="530" as="geometry" />
        </mxCell>
        <mxCell id="s9cxLbGYcSHXDW8gIA_D-2" value="Step 1:&amp;nbsp; Create an account&amp;nbsp;" style="text;html=1;align=center;verticalAlign=middle;resizable=0;points=[];autosize=1;strokeColor=none;fillColor=none;" parent="1" vertex="1">
          <mxGeometry x="120" y="70" width="170" height="30" as="geometry" />
        </mxCell>
        <mxCell id="s9cxLbGYcSHXDW8gIA_D-3" value="LOGO" style="ellipse;whiteSpace=wrap;html=1;aspect=fixed;" parent="1" vertex="1">
          <mxGeometry x="80" y="170" width="70" height="70" as="geometry" />
        </mxCell>
        <mxCell id="s9cxLbGYcSHXDW8gIA_D-4" value="Welcome to the check-in app!&amp;nbsp;" style="text;html=1;strokeColor=none;fillColor=none;align=center;verticalAlign=middle;whiteSpace=wrap;rounded=0;" parent="1" vertex="1">
          <mxGeometry x="150" y="200" width="190" height="30" as="geometry" />
        </mxCell>
        <mxCell id="s9cxLbGYcSHXDW8gIA_D-5" value="Please create an account&amp;nbsp;" style="text;html=1;strokeColor=none;fillColor=none;align=center;verticalAlign=middle;whiteSpace=wrap;rounded=0;" parent="1" vertex="1">
          <mxGeometry x="110" y="300" width="190" height="30" as="geometry" />
        </mxCell>
        <mxCell id="s9cxLbGYcSHXDW8gIA_D-8" value="Or" style="text;html=1;strokeColor=none;fillColor=none;align=center;verticalAlign=middle;whiteSpace=wrap;rounded=0;" parent="1" vertex="1">
          <mxGeometry x="110" y="488" width="190" height="51" as="geometry" />
        </mxCell>
        <mxCell id="s9cxLbGYcSHXDW8gIA_D-9" value="Sign up using Google" style="strokeWidth=1;shadow=0;dashed=0;align=center;html=1;shape=mxgraph.mockup.text.textBox;fontColor=#666666;align=left;fontSize=17;spacingLeft=4;spacingTop=-3;strokeColor=#666666;mainText=" parent="1" vertex="1">
          <mxGeometry x="110" y="537" width="210" height="30" as="geometry" />
        </mxCell>
        <mxCell id="s9cxLbGYcSHXDW8gIA_D-21" style="edgeStyle=orthogonalEdgeStyle;rounded=0;orthogonalLoop=1;jettySize=auto;html=1;" parent="1" source="s9cxLbGYcSHXDW8gIA_D-11" edge="1">
          <mxGeometry relative="1" as="geometry">
            <mxPoint x="890" y="375" as="targetPoint" />
          </mxGeometry>
        </mxCell>
        <mxCell id="s9cxLbGYcSHXDW8gIA_D-11" value="" style="verticalLabelPosition=bottom;verticalAlign=top;html=1;shadow=0;dashed=0;strokeWidth=1;shape=mxgraph.android.phone2;strokeColor=#c0c0c0;" parent="1" vertex="1">
          <mxGeometry x="490" y="110" width="280" height="530" as="geometry" />
        </mxCell>
        <mxCell id="s9cxLbGYcSHXDW8gIA_D-12" value="Step 2:&amp;nbsp;Register a family member&amp;nbsp;" style="text;html=1;align=center;verticalAlign=middle;resizable=0;points=[];autosize=1;strokeColor=none;fillColor=none;" parent="1" vertex="1">
          <mxGeometry x="530" y="70" width="200" height="30" as="geometry" />
        </mxCell>
        <mxCell id="s9cxLbGYcSHXDW8gIA_D-13" value="LOGO" style="ellipse;whiteSpace=wrap;html=1;aspect=fixed;" parent="1" vertex="1">
          <mxGeometry x="520" y="180" width="70" height="70" as="geometry" />
        </mxCell>
        <mxCell id="s9cxLbGYcSHXDW8gIA_D-14" value="Hi Anna!&lt;br&gt;Please register someone you would like to check in&amp;nbsp;" style="text;html=1;strokeColor=none;fillColor=none;align=center;verticalAlign=middle;whiteSpace=wrap;rounded=0;" parent="1" vertex="1">
          <mxGeometry x="600" y="190" width="150" height="50" as="geometry" />
        </mxCell>
        <mxCell id="s9cxLbGYcSHXDW8gIA_D-19" value="Next" style="rounded=1;fillColor=#0057D8;strokeColor=none;html=1;fontColor=#ffffff;align=center;verticalAlign=middle;fontStyle=0;fontSize=12;sketch=0;" parent="1" vertex="1">
          <mxGeometry x="632" y="551" width="86" height="33" as="geometry" />
        </mxCell>
        <mxCell id="s9cxLbGYcSHXDW8gIA_D-67" style="edgeStyle=orthogonalEdgeStyle;rounded=0;orthogonalLoop=1;jettySize=auto;html=1;entryX=-0.011;entryY=0.502;entryDx=0;entryDy=0;entryPerimeter=0;" parent="1" source="s9cxLbGYcSHXDW8gIA_D-20" target="s9cxLbGYcSHXDW8gIA_D-66" edge="1">
          <mxGeometry relative="1" as="geometry" />
        </mxCell>
        <mxCell id="s9cxLbGYcSHXDW8gIA_D-20" value="" style="verticalLabelPosition=bottom;verticalAlign=top;html=1;shadow=0;dashed=0;strokeWidth=1;shape=mxgraph.android.phone2;strokeColor=#c0c0c0;" parent="1" vertex="1">
          <mxGeometry x="900" y="110" width="280" height="530" as="geometry" />
        </mxCell>
        <mxCell id="s9cxLbGYcSHXDW8gIA_D-22" value="Step 3:&amp;nbsp;Schedule&amp;nbsp;your check in&amp;nbsp;" style="text;html=1;align=center;verticalAlign=middle;resizable=0;points=[];autosize=1;strokeColor=none;fillColor=none;" parent="1" vertex="1">
          <mxGeometry x="945" y="70" width="190" height="30" as="geometry" />
        </mxCell>
        <mxCell id="s9cxLbGYcSHXDW8gIA_D-23" value="LOGO" style="ellipse;whiteSpace=wrap;html=1;aspect=fixed;" parent="1" vertex="1">
          <mxGeometry x="930" y="180" width="70" height="70" as="geometry" />
        </mxCell>
        <mxCell id="s9cxLbGYcSHXDW8gIA_D-24" value="Please set your check-in schedule&amp;nbsp;" style="text;html=1;strokeColor=none;fillColor=none;align=center;verticalAlign=middle;whiteSpace=wrap;rounded=0;" parent="1" vertex="1">
          <mxGeometry x="1010" y="190" width="150" height="50" as="geometry" />
        </mxCell>
        <mxCell id="s9cxLbGYcSHXDW8gIA_D-26" value="Select a frequency&amp;nbsp;" style="html=1;shadow=0;dashed=0;shape=mxgraph.bootstrap.rrect;rSize=5;strokeColor=#505050;strokeWidth=1;fillColor=#ffffff;fontColor=#777777;whiteSpace=wrap;align=left;verticalAlign=middle;fontStyle=0;fontSize=12;spacing=15;" parent="1" vertex="1">
          <mxGeometry x="925" y="293" width="230" height="40" as="geometry" />
        </mxCell>
        <mxCell id="s9cxLbGYcSHXDW8gIA_D-27" value="" style="shape=triangle;direction=south;fillColor=#495057;strokeColor=none;perimeter=none;" parent="s9cxLbGYcSHXDW8gIA_D-26" vertex="1">
          <mxGeometry x="1" y="0.5" width="10" height="5" relative="1" as="geometry">
            <mxPoint x="-17" y="-2.5" as="offset" />
          </mxGeometry>
        </mxCell>
        <mxCell id="s9cxLbGYcSHXDW8gIA_D-47" value="How often do you want to check-in?" style="text;html=1;strokeColor=none;fillColor=none;align=center;verticalAlign=middle;whiteSpace=wrap;rounded=0;" parent="s9cxLbGYcSHXDW8gIA_D-26" vertex="1">
          <mxGeometry y="-30" width="230" height="30" as="geometry" />
        </mxCell>
        <mxCell id="s9cxLbGYcSHXDW8gIA_D-51" value="Select a time for the check-in" style="text;html=1;strokeColor=none;fillColor=none;align=center;verticalAlign=middle;whiteSpace=wrap;rounded=0;" parent="1" vertex="1">
          <mxGeometry x="925" y="350" width="230" height="30" as="geometry" />
        </mxCell>
        <mxCell id="s9cxLbGYcSHXDW8gIA_D-52" value="" style="dashed=0;align=center;fontSize=12;shape=rect;fillColor=#ffffff;strokeColor=#cccccc;" parent="1" vertex="1">
          <mxGeometry x="928" y="378" width="100" height="40" as="geometry" />
        </mxCell>
        <mxCell id="s9cxLbGYcSHXDW8gIA_D-53" value="12:00" style="text;fontColor=#000000;verticalAlign=middle;spacingLeft=13;fontSize=14;" parent="s9cxLbGYcSHXDW8gIA_D-52" vertex="1">
          <mxGeometry width="100" height="40" as="geometry" />
        </mxCell>
        <mxCell id="s9cxLbGYcSHXDW8gIA_D-54" value="" style="dashed=0;html=1;shape=mxgraph.gmdl.triangle;fillColor=#cccccc;strokeColor=none;" parent="s9cxLbGYcSHXDW8gIA_D-52" vertex="1">
          <mxGeometry x="1" y="0.5" width="10" height="5" relative="1" as="geometry">
            <mxPoint x="-25" y="-2.5" as="offset" />
          </mxGeometry>
        </mxCell>
        <mxCell id="s9cxLbGYcSHXDW8gIA_D-56" value="" style="dashed=0;align=center;fontSize=12;shape=rect;fillColor=#ffffff;strokeColor=#cccccc;" parent="1" vertex="1">
          <mxGeometry x="1040" y="377" width="100" height="40" as="geometry" />
        </mxCell>
        <mxCell id="s9cxLbGYcSHXDW8gIA_D-57" value="AM" style="text;fontColor=#000000;verticalAlign=middle;spacingLeft=13;fontSize=14;" parent="s9cxLbGYcSHXDW8gIA_D-56" vertex="1">
          <mxGeometry width="100" height="40" as="geometry" />
        </mxCell>
        <mxCell id="s9cxLbGYcSHXDW8gIA_D-58" value="" style="dashed=0;html=1;shape=mxgraph.gmdl.triangle;fillColor=#cccccc;strokeColor=none;" parent="s9cxLbGYcSHXDW8gIA_D-56" vertex="1">
          <mxGeometry x="1" y="0.5" width="10" height="5" relative="1" as="geometry">
            <mxPoint x="-25" y="-2.5" as="offset" />
          </mxGeometry>
        </mxCell>
        <mxCell id="s9cxLbGYcSHXDW8gIA_D-59" value="Select the recipient&#39;s time zone&amp;nbsp;" style="text;html=1;strokeColor=none;fillColor=none;align=center;verticalAlign=middle;whiteSpace=wrap;rounded=0;" parent="1" vertex="1">
          <mxGeometry x="930" y="433" width="230" height="30" as="geometry" />
        </mxCell>
        <mxCell id="s9cxLbGYcSHXDW8gIA_D-60" value="GMT&amp;nbsp;" style="html=1;shadow=0;dashed=0;shape=mxgraph.bootstrap.rrect;rSize=5;strokeColor=#505050;strokeWidth=1;fillColor=#ffffff;fontColor=#777777;whiteSpace=wrap;align=left;verticalAlign=middle;fontStyle=0;fontSize=12;spacing=15;" parent="1" vertex="1">
          <mxGeometry x="925" y="470" width="230" height="40" as="geometry" />
        </mxCell>
        <mxCell id="s9cxLbGYcSHXDW8gIA_D-61" value="" style="shape=triangle;direction=south;fillColor=#495057;strokeColor=none;perimeter=none;" parent="s9cxLbGYcSHXDW8gIA_D-60" vertex="1">
          <mxGeometry x="1" y="0.5" width="10" height="5" relative="1" as="geometry">
            <mxPoint x="-17" y="-2.5" as="offset" />
          </mxGeometry>
        </mxCell>
        <mxCell id="s9cxLbGYcSHXDW8gIA_D-65" value="Next" style="rounded=1;fillColor=#0057D8;strokeColor=none;html=1;fontColor=#ffffff;align=center;verticalAlign=middle;fontStyle=0;fontSize=12;sketch=0;" parent="1" vertex="1">
          <mxGeometry x="1054" y="534" width="86" height="33" as="geometry" />
        </mxCell>
        <mxCell id="GYkAy3OL7T5p9hV-0ybO-5" style="edgeStyle=orthogonalEdgeStyle;rounded=0;orthogonalLoop=1;jettySize=auto;html=1;fontSize=12;fontColor=#808080;" edge="1" parent="1" source="s9cxLbGYcSHXDW8gIA_D-66">
          <mxGeometry relative="1" as="geometry">
            <mxPoint x="1690" y="374" as="targetPoint" />
          </mxGeometry>
        </mxCell>
        <mxCell id="s9cxLbGYcSHXDW8gIA_D-66" value="" style="verticalLabelPosition=bottom;verticalAlign=top;html=1;shadow=0;dashed=0;strokeWidth=1;shape=mxgraph.android.phone2;strokeColor=#c0c0c0;" parent="1" vertex="1">
          <mxGeometry x="1279" y="109" width="280" height="530" as="geometry" />
        </mxCell>
        <mxCell id="s9cxLbGYcSHXDW8gIA_D-68" value="LOGO" style="ellipse;whiteSpace=wrap;html=1;aspect=fixed;" parent="1" vertex="1">
          <mxGeometry x="1310" y="180" width="70" height="70" as="geometry" />
        </mxCell>
        <mxCell id="s9cxLbGYcSHXDW8gIA_D-70" value="Back" style="rounded=1;fillColor=#F1F2F4;strokeColor=none;html=1;fontColor=#596780;align=center;verticalAlign=middle;fontStyle=0;fontSize=12;sketch=0;" parent="1" vertex="1">
          <mxGeometry x="945" y="534" width="86" height="33" as="geometry" />
        </mxCell>
        <mxCell id="s9cxLbGYcSHXDW8gIA_D-72" value="Back" style="rounded=1;fillColor=#F1F2F4;strokeColor=none;html=1;fontColor=#596780;align=center;verticalAlign=middle;fontStyle=0;fontSize=12;sketch=0;" parent="1" vertex="1">
          <mxGeometry x="530" y="550" width="86" height="33" as="geometry" />
        </mxCell>
        <mxCell id="s9cxLbGYcSHXDW8gIA_D-73" value="You&#39;re almost done!&amp;nbsp;&lt;br&gt;Personalize your check-in message." style="text;html=1;strokeColor=none;fillColor=none;align=center;verticalAlign=middle;whiteSpace=wrap;rounded=0;" parent="1" vertex="1">
          <mxGeometry x="1390" y="190" width="150" height="60" as="geometry" />
        </mxCell>
        <mxCell id="s9cxLbGYcSHXDW8gIA_D-74" value="Who would you like to check-in on?" style="fillColor=none;strokeColor=none;html=1;fontSize=11;fontStyle=0;align=left;fontColor=#596780;fontStyle=1;fontSize=11" parent="1" vertex="1">
          <mxGeometry x="530" y="257" width="210" height="20" as="geometry" />
        </mxCell>
        <mxCell id="s9cxLbGYcSHXDW8gIA_D-75" value="Enter full name&amp;nbsp;" style="rounded=1;arcSize=9;fillColor=#F7F8F9;align=left;spacingLeft=5;strokeColor=#DEE1E6;html=1;strokeWidth=2;fontColor=#596780;fontSize=12" parent="1" vertex="1">
          <mxGeometry x="530" y="277" width="210" height="33" as="geometry" />
        </mxCell>
        <mxCell id="s9cxLbGYcSHXDW8gIA_D-76" value="Your relationship&amp;nbsp;" style="fillColor=none;strokeColor=none;html=1;fontSize=11;fontStyle=0;align=left;fontColor=#596780;fontStyle=1;fontSize=11" parent="1" vertex="1">
          <mxGeometry x="530" y="313" width="210" height="20" as="geometry" />
        </mxCell>
        <mxCell id="s9cxLbGYcSHXDW8gIA_D-78" value="Mother&amp;nbsp;" style="html=1;shadow=0;dashed=0;shape=mxgraph.bootstrap.rrect;rSize=5;strokeColor=#505050;strokeWidth=1;fillColor=#ffffff;fontColor=#777777;whiteSpace=wrap;align=left;verticalAlign=middle;fontStyle=0;fontSize=12;spacing=15;" parent="1" vertex="1">
          <mxGeometry x="529" y="332" width="210" height="30" as="geometry" />
        </mxCell>
        <mxCell id="s9cxLbGYcSHXDW8gIA_D-79" value="" style="shape=triangle;direction=south;fillColor=#495057;strokeColor=none;perimeter=none;" parent="s9cxLbGYcSHXDW8gIA_D-78" vertex="1">
          <mxGeometry x="1" y="0.5" width="10" height="5" relative="1" as="geometry">
            <mxPoint x="-17" y="-2.5" as="offset" />
          </mxGeometry>
        </mxCell>
        <mxCell id="s9cxLbGYcSHXDW8gIA_D-81" value="How old is she/he?" style="fillColor=none;strokeColor=none;html=1;fontSize=11;fontStyle=0;align=left;fontColor=#596780;fontStyle=1;fontSize=11" parent="1" vertex="1">
          <mxGeometry x="530" y="371" width="210" height="20" as="geometry" />
        </mxCell>
        <mxCell id="s9cxLbGYcSHXDW8gIA_D-82" value="80-90" style="html=1;shadow=0;dashed=0;shape=mxgraph.bootstrap.rrect;rSize=5;strokeColor=#505050;strokeWidth=1;fillColor=#ffffff;fontColor=#777777;whiteSpace=wrap;align=left;verticalAlign=middle;fontStyle=0;fontSize=12;spacing=15;" parent="1" vertex="1">
          <mxGeometry x="530" y="391" width="210" height="30" as="geometry" />
        </mxCell>
        <mxCell id="s9cxLbGYcSHXDW8gIA_D-83" value="" style="shape=triangle;direction=south;fillColor=#495057;strokeColor=none;perimeter=none;" parent="s9cxLbGYcSHXDW8gIA_D-82" vertex="1">
          <mxGeometry x="1" y="0.5" width="10" height="5" relative="1" as="geometry">
            <mxPoint x="-17" y="-2.5" as="offset" />
          </mxGeometry>
        </mxCell>
        <mxCell id="s9cxLbGYcSHXDW8gIA_D-87" value="What is her/his email address?" style="fillColor=none;strokeColor=none;html=1;fontSize=11;fontStyle=0;align=left;fontColor=#596780;fontStyle=1;fontSize=11" parent="1" vertex="1">
          <mxGeometry x="529" y="427" width="210" height="20" as="geometry" />
        </mxCell>
        <mxCell id="s9cxLbGYcSHXDW8gIA_D-88" value="Enter email" style="rounded=1;arcSize=9;fillColor=#F7F8F9;align=left;spacingLeft=5;strokeColor=#DEE1E6;html=1;strokeWidth=2;fontColor=#596780;fontSize=12" parent="1" vertex="1">
          <mxGeometry x="529" y="447" width="210" height="33" as="geometry" />
        </mxCell>
        <mxCell id="s9cxLbGYcSHXDW8gIA_D-89" value="What is her/his mobile number&amp;nbsp;" style="fillColor=none;strokeColor=none;html=1;fontSize=11;fontStyle=0;align=left;fontColor=#596780;fontStyle=1;fontSize=11" parent="1" vertex="1">
          <mxGeometry x="529" y="486" width="210" height="20" as="geometry" />
        </mxCell>
        <mxCell id="s9cxLbGYcSHXDW8gIA_D-90" value="+" style="rounded=1;arcSize=9;fillColor=#F7F8F9;align=left;spacingLeft=5;strokeColor=#DEE1E6;html=1;strokeWidth=2;fontColor=#596780;fontSize=12" parent="1" vertex="1">
          <mxGeometry x="529" y="506" width="210" height="33" as="geometry" />
        </mxCell>
        <mxCell id="s9cxLbGYcSHXDW8gIA_D-91" value="Type message&amp;nbsp;" style="strokeWidth=1;shadow=0;dashed=0;align=center;html=1;shape=mxgraph.mockup.text.textBox;fontColor=#666666;align=left;fontSize=17;spacingLeft=4;spacingTop=-3;strokeColor=#666666;mainText=" parent="1" vertex="1">
          <mxGeometry x="1314" y="293" width="210" height="80" as="geometry" />
        </mxCell>
        <mxCell id="s9cxLbGYcSHXDW8gIA_D-92" value="Personalize your check-in message&amp;nbsp;" style="text;html=1;strokeColor=none;fillColor=none;align=center;verticalAlign=middle;whiteSpace=wrap;rounded=0;" parent="1" vertex="1">
          <mxGeometry x="1300" y="263" width="230" height="30" as="geometry" />
        </mxCell>
        <mxCell id="s9cxLbGYcSHXDW8gIA_D-93" value="&lt;span style=&quot;font-style: normal;&quot;&gt;0/500&lt;/span&gt;" style="text;html=1;strokeColor=none;fillColor=none;align=left;verticalAlign=middle;whiteSpace=wrap;rounded=0;fontStyle=2;fontColor=#808080;" parent="1" vertex="1">
          <mxGeometry x="1314" y="370" width="230" height="30" as="geometry" />
        </mxCell>
        <mxCell id="s9cxLbGYcSHXDW8gIA_D-96" value="" style="rounded=1;arcSize=9;fillColor=#F7F8F9;align=left;spacingLeft=5;strokeColor=#DEE1E6;html=1;strokeWidth=2;fontColor=#596780;fontSize=12" parent="1" vertex="1">
          <mxGeometry x="1314" y="447" width="210" height="33" as="geometry" />
        </mxCell>
        <mxCell id="s9cxLbGYcSHXDW8gIA_D-97" value="Enter the name you would like to be used to check in" style="text;html=1;strokeColor=none;fillColor=none;align=center;verticalAlign=middle;whiteSpace=wrap;rounded=0;" parent="1" vertex="1">
          <mxGeometry x="1300" y="410" width="230" height="30" as="geometry" />
        </mxCell>
        <mxCell id="s9cxLbGYcSHXDW8gIA_D-98" value="Confirm" style="rounded=1;fillColor=#0057D8;strokeColor=none;html=1;fontColor=#ffffff;align=center;verticalAlign=middle;fontStyle=0;fontSize=12;sketch=0;" parent="1" vertex="1">
          <mxGeometry x="1851.5" y="533" width="86" height="33" as="geometry" />
        </mxCell>
        <mxCell id="s9cxLbGYcSHXDW8gIA_D-99" value="Back" style="rounded=1;fillColor=#F1F2F4;strokeColor=none;html=1;fontColor=#596780;align=center;verticalAlign=middle;fontStyle=0;fontSize=12;sketch=0;" parent="1" vertex="1">
          <mxGeometry x="1742.5" y="533" width="86" height="33" as="geometry" />
        </mxCell>
        <mxCell id="s9cxLbGYcSHXDW8gIA_D-100" value="" style="verticalLabelPosition=bottom;verticalAlign=top;html=1;shadow=0;dashed=0;strokeWidth=1;shape=mxgraph.android.phone2;strokeColor=#c0c0c0;" parent="1" vertex="1">
          <mxGeometry x="1700" y="110" width="280" height="530" as="geometry" />
        </mxCell>
        <mxCell id="s9cxLbGYcSHXDW8gIA_D-101" value="LOGO" style="ellipse;whiteSpace=wrap;html=1;aspect=fixed;" parent="1" vertex="1">
          <mxGeometry x="1725" y="190" width="70" height="70" as="geometry" />
        </mxCell>
        <mxCell id="s9cxLbGYcSHXDW8gIA_D-102" value="You&#39;re all set! Please confirm your check-in details&amp;nbsp;" style="text;html=1;strokeColor=none;fillColor=none;align=center;verticalAlign=middle;whiteSpace=wrap;rounded=0;" parent="1" vertex="1">
          <mxGeometry x="1805" y="200" width="150" height="60" as="geometry" />
        </mxCell>
        <mxCell id="GYkAy3OL7T5p9hV-0ybO-1" value="&lt;font style=&quot;font-size: 12px;&quot;&gt;Name: Mary Smith&amp;nbsp;&lt;br&gt;Relationship: Mother&amp;nbsp;&lt;br&gt;Email: marysmith@gmail.com&lt;br&gt;Mobile: +1-718-000-0101&lt;br&gt;Check-in frequency: Daily&amp;nbsp;&lt;br&gt;Check-in time: 8:00 PM EST&lt;br&gt;Check-in message: &lt;br&gt;Hi Ma, how are you doing today?&lt;br&gt;&lt;/font&gt;" style="strokeWidth=1;shadow=0;dashed=0;align=center;html=1;shape=mxgraph.mockup.text.bulletedList;textColor=#666666;mainText=,,,,;textSize=17;bulletStyle=none;strokeColor=none;fillColor=none;align=left;verticalAlign=top;fontSize=17;fontColor=#666666;" vertex="1" parent="1">
          <mxGeometry x="1730" y="287.5" width="220" height="192.5" as="geometry" />
        </mxCell>
        <mxCell id="GYkAy3OL7T5p9hV-0ybO-2" value="Next" style="rounded=1;fillColor=#0057D8;strokeColor=none;html=1;fontColor=#ffffff;align=center;verticalAlign=middle;fontStyle=0;fontSize=12;sketch=0;" vertex="1" parent="1">
          <mxGeometry x="1430.5" y="534" width="86" height="33" as="geometry" />
        </mxCell>
        <mxCell id="GYkAy3OL7T5p9hV-0ybO-3" value="Back" style="rounded=1;fillColor=#F1F2F4;strokeColor=none;html=1;fontColor=#596780;align=center;verticalAlign=middle;fontStyle=0;fontSize=12;sketch=0;" vertex="1" parent="1">
          <mxGeometry x="1321.5" y="534" width="86" height="33" as="geometry" />
        </mxCell>
        <mxCell id="GYkAy3OL7T5p9hV-0ybO-7" value="Step 4:&amp;nbsp;Personalize&amp;nbsp;" style="text;html=1;align=center;verticalAlign=middle;resizable=0;points=[];autosize=1;strokeColor=none;fillColor=none;" vertex="1" parent="1">
          <mxGeometry x="1354" y="70" width="130" height="30" as="geometry" />
        </mxCell>
        <mxCell id="GYkAy3OL7T5p9hV-0ybO-8" value="Step 5:&amp;nbsp;Confirm&amp;nbsp;" style="text;html=1;align=center;verticalAlign=middle;resizable=0;points=[];autosize=1;strokeColor=none;fillColor=none;" vertex="1" parent="1">
          <mxGeometry x="1790" y="70" width="110" height="30" as="geometry" />
        </mxCell>
        <mxCell id="GYkAy3OL7T5p9hV-0ybO-9" value="Enter email&amp;nbsp;" style="rounded=1;arcSize=9;fillColor=#F7F8F9;align=left;spacingLeft=5;strokeColor=#DEE1E6;html=1;strokeWidth=2;fontColor=#596780;fontSize=12" vertex="1" parent="1">
          <mxGeometry x="110" y="338" width="210" height="33" as="geometry" />
        </mxCell>
        <mxCell id="GYkAy3OL7T5p9hV-0ybO-10" value="Enter your password&amp;nbsp;" style="rounded=1;arcSize=9;fillColor=#F7F8F9;align=left;spacingLeft=5;strokeColor=#DEE1E6;html=1;strokeWidth=2;fontColor=#596780;fontSize=12" vertex="1" parent="1">
          <mxGeometry x="110" y="378" width="210" height="33" as="geometry" />
        </mxCell>
        <mxCell id="GYkAy3OL7T5p9hV-0ybO-11" value="Enter your full name&amp;nbsp;" style="rounded=1;arcSize=9;fillColor=#F7F8F9;align=left;spacingLeft=5;strokeColor=#DEE1E6;html=1;strokeWidth=2;fontColor=#596780;fontSize=12" vertex="1" parent="1">
          <mxGeometry x="110" y="420.5" width="210" height="33" as="geometry" />
        </mxCell>
        <mxCell id="GYkAy3OL7T5p9hV-0ybO-12" value="Sign up" style="rounded=1;fillColor=#0057D8;strokeColor=none;html=1;fontColor=#ffffff;align=center;verticalAlign=middle;fontStyle=0;fontSize=12;sketch=0;" vertex="1" parent="1">
          <mxGeometry x="162" y="463" width="86" height="33" as="geometry" />
        </mxCell>
        <mxCell id="GYkAy3OL7T5p9hV-0ybO-31" style="edgeStyle=orthogonalEdgeStyle;rounded=0;orthogonalLoop=1;jettySize=auto;html=1;fontSize=12;fontColor=#808080;entryX=0;entryY=0.5;entryDx=0;entryDy=0;entryPerimeter=0;" edge="1" parent="1" source="GYkAy3OL7T5p9hV-0ybO-13" target="GYkAy3OL7T5p9hV-0ybO-23">
          <mxGeometry relative="1" as="geometry">
            <mxPoint x="370" y="1015" as="targetPoint" />
          </mxGeometry>
        </mxCell>
        <mxCell id="GYkAy3OL7T5p9hV-0ybO-32" style="edgeStyle=orthogonalEdgeStyle;rounded=0;orthogonalLoop=1;jettySize=auto;html=1;entryX=0.003;entryY=0.487;entryDx=0;entryDy=0;entryPerimeter=0;fontSize=12;fontColor=#808080;" edge="1" parent="1" source="GYkAy3OL7T5p9hV-0ybO-13" target="GYkAy3OL7T5p9hV-0ybO-27">
          <mxGeometry relative="1" as="geometry" />
        </mxCell>
        <mxCell id="GYkAy3OL7T5p9hV-0ybO-13" value="" style="verticalLabelPosition=bottom;verticalAlign=top;html=1;shadow=0;dashed=0;strokeWidth=1;shape=mxgraph.android.phone2;strokeColor=#c0c0c0;" vertex="1" parent="1">
          <mxGeometry x="60" y="750" width="280" height="530" as="geometry" />
        </mxCell>
        <mxCell id="GYkAy3OL7T5p9hV-0ybO-14" value="Senior user gets the check in message&amp;nbsp;" style="text;html=1;align=center;verticalAlign=middle;resizable=0;points=[];autosize=1;strokeColor=none;fillColor=none;" vertex="1" parent="1">
          <mxGeometry x="90" y="710" width="230" height="30" as="geometry" />
        </mxCell>
        <mxCell id="GYkAy3OL7T5p9hV-0ybO-18" value="" style="html=1;verticalLabelPosition=bottom;align=center;labelBackgroundColor=#ffffff;verticalAlign=top;strokeWidth=2;strokeColor=#0080F0;shadow=0;dashed=0;shape=mxgraph.ios7.icons.message;fontSize=12;fontColor=#808080;" vertex="1" parent="1">
          <mxGeometry x="110" y="880" width="190" height="110" as="geometry" />
        </mxCell>
        <mxCell id="GYkAy3OL7T5p9hV-0ybO-19" value="Hi Ma, how are you today?" style="text;html=1;strokeColor=none;fillColor=none;align=center;verticalAlign=middle;whiteSpace=wrap;rounded=0;fontSize=12;fontColor=#808080;" vertex="1" parent="1">
          <mxGeometry x="120" y="910" width="170" height="30" as="geometry" />
        </mxCell>
        <mxCell id="GYkAy3OL7T5p9hV-0ybO-20" value="I&#39;m doing well&amp;nbsp;" style="rounded=1;fillColor=#00CC00;strokeColor=none;html=1;fontColor=#ffffff;align=center;verticalAlign=middle;fontStyle=0;fontSize=12;sketch=0;labelBackgroundColor=none;" vertex="1" parent="1">
          <mxGeometry x="110" y="1010" width="200" height="33" as="geometry" />
        </mxCell>
        <mxCell id="GYkAy3OL7T5p9hV-0ybO-21" value="Please call me&amp;nbsp;" style="rounded=1;fillColor=#FF8000;strokeColor=none;html=1;fontColor=#ffffff;align=center;verticalAlign=middle;fontStyle=0;fontSize=12;sketch=0;labelBackgroundColor=none;" vertex="1" parent="1">
          <mxGeometry x="110" y="1067" width="200" height="33" as="geometry" />
        </mxCell>
        <mxCell id="GYkAy3OL7T5p9hV-0ybO-22" value="Family member gets the check in response&amp;nbsp;" style="text;html=1;align=center;verticalAlign=middle;resizable=0;points=[];autosize=1;strokeColor=none;fillColor=none;" vertex="1" parent="1">
          <mxGeometry x="494" y="712" width="260" height="30" as="geometry" />
        </mxCell>
        <mxCell id="GYkAy3OL7T5p9hV-0ybO-23" value="" style="verticalLabelPosition=bottom;verticalAlign=top;html=1;shadow=0;dashed=0;strokeWidth=1;shape=mxgraph.android.phone2;strokeColor=#c0c0c0;" vertex="1" parent="1">
          <mxGeometry x="485" y="750" width="290" height="530" as="geometry" />
        </mxCell>
        <mxCell id="GYkAy3OL7T5p9hV-0ybO-24" value="LOGO" style="ellipse;whiteSpace=wrap;html=1;aspect=fixed;" vertex="1" parent="1">
          <mxGeometry x="520" y="830" width="70" height="70" as="geometry" />
        </mxCell>
        <mxCell id="GYkAy3OL7T5p9hV-0ybO-25" value="&lt;h1&gt;Jan. 21, 2023&lt;/h1&gt;&lt;p&gt;You checked-in on Mary Smith at 8:00 AM EST today. Mary Smith is doing well.&amp;nbsp;&lt;/p&gt;" style="text;html=1;strokeColor=none;fillColor=none;spacing=5;spacingTop=-20;whiteSpace=wrap;overflow=hidden;rounded=0;fontSize=12;fontColor=#808080;" vertex="1" parent="1">
          <mxGeometry x="520" y="930" width="230" height="120" as="geometry" />
        </mxCell>
        <mxCell id="GYkAy3OL7T5p9hV-0ybO-26" value="OK&amp;nbsp;" style="rounded=1;fillColor=#0057D8;strokeColor=none;html=1;fontColor=#ffffff;align=center;verticalAlign=middle;fontStyle=0;fontSize=12;sketch=0;labelBackgroundColor=none;" vertex="1" parent="1">
          <mxGeometry x="587" y="1034" width="86" height="33" as="geometry" />
        </mxCell>
        <mxCell id="GYkAy3OL7T5p9hV-0ybO-27" value="" style="verticalLabelPosition=bottom;verticalAlign=top;html=1;shadow=0;dashed=0;strokeWidth=1;shape=mxgraph.android.phone2;strokeColor=#c0c0c0;" vertex="1" parent="1">
          <mxGeometry x="485" y="1320" width="290" height="530" as="geometry" />
        </mxCell>
        <mxCell id="GYkAy3OL7T5p9hV-0ybO-28" value="LOGO" style="ellipse;whiteSpace=wrap;html=1;aspect=fixed;" vertex="1" parent="1">
          <mxGeometry x="520" y="1440" width="70" height="70" as="geometry" />
        </mxCell>
        <mxCell id="GYkAy3OL7T5p9hV-0ybO-29" value="&lt;h1&gt;Jan. 21, 2023&lt;/h1&gt;&lt;p&gt;You checked-in on Mary Smith at 8:00 AM EST today. Mary Smith needs you to call her.&amp;nbsp;&amp;nbsp;&lt;/p&gt;" style="text;html=1;strokeColor=none;fillColor=none;spacing=5;spacingTop=-20;whiteSpace=wrap;overflow=hidden;rounded=0;fontSize=12;fontColor=#808080;" vertex="1" parent="1">
          <mxGeometry x="520" y="1540" width="230" height="120" as="geometry" />
        </mxCell>
        <mxCell id="GYkAy3OL7T5p9hV-0ybO-30" value="Call Mary Smith" style="rounded=1;fillColor=#FF8000;strokeColor=none;html=1;fontColor=#ffffff;align=center;verticalAlign=middle;fontStyle=0;fontSize=12;sketch=0;labelBackgroundColor=none;" vertex="1" parent="1">
          <mxGeometry x="525" y="1650" width="210" height="33" as="geometry" />
        </mxCell>
      </root>
    </mxGraphModel>
  </diagram>
</mxfile>
